<?xml version="1.0" encoding="utf-8"?>
<!-- Generator: Adobe Illustrator 24.3.0, SVG Export Plug-In . SVG Version: 6.00 Build 0)  -->
<svg version="1.1" id="Layer_1" xmlns="http://www.w3.org/2000/svg" xmlns:xlink="http://www.w3.org/1999/xlink" x="0px" y="0px"
	 viewBox="0 0 1000 1000" style="enable-background:new 0 0 1000 1000;" xml:space="preserve">
<style type="text/css">
	.st0{fill:#6AA2D7;}
</style>
<path class="st0" d="M312.72,798.18c-0.01-3.6-0.24-7.36,5.57-6.81c1.4,0,2.81,0,4.21,0.01c3.27-0.01,6.54-0.01,9.82-0.02
	c4.22,0,8.43,0.01,12.65,0.01c5.15,0,10.3,0,15.45,0c4.68,0,9.37,0,14.05,0c11.23,0,22.46,0,33.69,0
	c39.78,0.01,79.56,0.01,119.34,0.02c6.56,0,13.12,0,19.69,0c4.96,0,9.93,0,15.29,0c0-4.77,0-8.82,0-12.87
	c0.01-5.68,0.01-11.36,0.02-17.04c0.01-8.31,0.01-16.62,0.02-24.93c0.05-52.57,0.14-105.15,0.14-157.72
	c0-62.83-0.08-125.65-0.13-188.48c0-5.25,0-10.49,0-15.74c0-5.68,0-11.37,0-17.05c0-4.81,0-9.62,0-14.43c0-3.06,0-6.12,0-9.19
	c1.14-3.47-2.67-9.64,5.72-9.16c1.4,0,2.81,0,4.22,0c1.87,0,3.75,0,5.62-0.01c1.87,0,3.75,0,5.62,0c1.87,0,3.75-0.01,5.62-0.01
	c2.81,0,5.62-0.01,8.43-0.01c2.81,0,5.62-0.01,8.42-0.01c2.81,0,5.63-0.01,8.45-0.01c21.51,0,43.02,0,64.52,0
	c2.75,0.04,5.5,0.07,8.25,0.11c0.16,1.29,0.31,2.58,0.47,3.87c0,1.31,0,2.63,0.01,3.94c0,1.31,0,2.62,0,3.93
	c0,2.62-0.01,5.24-0.01,7.85c0,1.31,0.01,2.63,0.01,3.94c0,1.31,0.01,2.63,0.01,3.94c0,2.19,0,4.37-0.01,6.56
	c0,2.2,0,4.41-0.01,6.61c0,1.75,0,3.49,0,5.24c0,1.75,0,3.5,0,5.25c0,3.07,0.01,6.14,0.01,9.21c0,6.53-0.01,13.05-0.01,19.58
	c-0.08,1.74-0.23,3.48-0.23,5.23c-0.01,149.5-0.01,299.01,0,448.51c0,1.74,0.15,3.48,0.23,5.23c0.01,6.52,0.01,13.05,0.02,19.57
	c0,3.07-0.01,6.14-0.01,9.22c0,1.33,0,2.67,0,4c0,2.16,0,4.32,0.01,6.48c0.4,4.05-1.5,5.96-5.91,5.52
	c-2.35,0.01-4.69,0.02-7.04,0.03c-7.02-0.01-14.03-0.01-21.05-0.02c-62.24-0.08-124.48-0.19-186.72-0.22
	c-25.27-0.01-50.54,0.14-75.8,0.22c-7.02,0.01-14.04,0.01-21.06,0.02c-2.81-0.01-5.62-0.01-8.44-0.02
	c-2.34-0.01-4.68-0.01-7.02-0.02c-2.34,0-4.69-0.01-7.03-0.01c-1.41-0.01-2.82-0.01-4.22-0.01c-1.41-0.01-2.81-0.01-4.22-0.02
	c-3.27,0-6.54,0-9.81-0.01c-0.94,0-1.89-0.01-2.83-0.01c-1.87,0-3.74-0.01-5.61-0.01c-0.94,0-1.88,0-2.82,0
	c-5.03,0.56-5.57-2.15-5.56-5.99c0.09-24.7-0.01-49.39-0.05-74.09c0.01-3.06,0.01-6.12,0.01-9.18c0-2.19,0.01-4.38,0.02-6.56
	c0-1.75,0-3.5,0-5.25c0.01-2.19,0.01-4.37,0.02-6.56C312.72,799.93,312.72,799.06,312.72,798.18z"/>
<path class="st0" d="M63.09,92.02c1.45-0.16,2.9-0.33,4.36-0.49c0.98-0.04,1.96-0.08,2.94-0.12c2.34,0.06,4.67,0.16,7.01,0.16
	c270.27-0.02,540.55-0.04,810.82-0.06c16.14,0,32.29,0.13,48.43,0.2c0.04,1.31,0.09,2.62,0.13,3.94c0,1.31,0,2.62,0,3.94
	c0,0.88,0.01,1.76,0.01,2.64c0,2.19,0.01,4.37,0.01,6.56c0,1.75,0.01,3.49,0.02,5.24c0,1.31,0.01,2.63,0.01,3.94
	c0,2.19,0.01,4.37,0.01,6.56c0,2.19,0.01,4.37,0.01,6.56c0,3.06,0,6.12,0,9.19c0,17.47,0,34.93-0.01,52.4c0,3.5,0,6.99,0.01,10.49
	c0.44,4.07-1.65,5.7-5.85,5.32c-1.87,0-3.74,0-5.61-0.01c-2.34,0-4.68-0.01-7.02-0.01c-7.95-0.02-15.9-0.04-23.85-0.06
	c-2.33-0.06-4.67-0.17-7-0.18c-201.28-0.02-402.56-0.03-603.84-0.04c-1.87,0-3.73,0.13-5.6,0.2c-10.76,0-21.53,0-32.29,0
	c-19.07,0-38.13,0-57.58,0c0,20.82,0,41.25,0,61.69c-0.09,1.96-0.25,3.92-0.25,5.88c0,188.85,0.01,377.71,0.04,566.56
	c0,5.02,0.15,10.04,0.23,15.05c0,6.12,0,12.24,0,18.36c0.01,5.24,0.02,10.48,0.03,15.72c0,1.75,0.01,3.5,0.01,5.25
	c0.01,2.18,0.02,4.36,0.03,6.54c-0.17,6.21-5.54,3.08-8.56,4.15c-21.98,0-43.96,0-65.93,0c-2.81-0.01-5.62-0.02-8.44-0.02
	c-2.81,0-5.62,0-8.43-0.01c-1.41-0.01-2.81-0.01-4.22-0.01c-1.87,0-3.74-0.01-5.61-0.01c-2.34,0-4.68-0.01-7.03-0.01
	c-1.41,0-2.82-0.01-4.22-0.01c-1.86,0-3.72-0.01-5.59-0.01c-0.94,0-1.87,0-2.81,0c-0.48,0-0.96,0.01-1.44,0.01
	c-0.93-0.06-1.87-0.13-2.8-0.19c-0.05-3.49-0.15-6.99-0.15-10.48C63.09,628.55,63.09,360.29,63.09,92.02z"/>
<path class="st0" d="M314,332.8c0.18-1.9,0.36-3.81,0.57-6.1c3.26-0.16,6.24-0.31,9.21-0.46c2.81,0,5.62,0,8.43,0
	c4.68-0.01,9.37-0.01,14.05-0.02c5.62-0.01,11.25-0.02,16.87-0.03c23.37,0,46.75,0,70.12,0c4.25-0.37,6.33,1.14,5.87,5.41
	c-0.25,2.29,0.14,4.64,0.23,6.95c0.24,5.91,0.49,11.83,0.74,17.75c0.03,1.77,0.06,3.55,0.08,5.32c-0.01,2.18-0.01,4.37-0.02,6.55
	c-0.01,2.62-0.02,5.23-0.03,7.85c-0.12,4.85-0.24,9.7-0.36,14.55c-0.15,4.32-0.29,8.63-0.44,12.95c-0.14,1.73-0.41,3.47-0.41,5.2
	c-0.02,73.52-0.02,147.04,0,220.56c0,1.73,0.27,3.47,0.41,5.2c0.15,4.32,0.29,8.64,0.43,12.96c0.01,4.82,0.02,9.64,0.03,14.46
	c-0.01,2.61-0.03,5.23-0.04,7.84c-0.08,1.81-0.15,3.62-0.23,5.43c-0.3,0.32-0.48,0.7-0.55,1.12c-1.9,0.09-3.81,0.18-5.71,0.28
	c-3.75,0-7.5,0-11.24,0.01c-15.43,0-30.85,0-46.28,0c-3.75,0-7.5,0-11.24-0.01c-2.81,0-5.61,0-8.42-0.01
	c-3.28,0-6.55-0.01-9.83-0.01c-2.81,0-5.63-0.01-8.44-0.01c-2.34,0-4.68,0-7.02,0c-1.41,0-2.82,0-4.22,0c-1.4,0-2.81,0-4.21,0.01
	c-1.41,0-2.82,0.01-4.22,0.01c-1.36-1.26-3.51-2.34-3.89-3.81c-0.67-2.6-0.27-5.45-0.32-8.19c-0.01-5.69-0.01-11.38-0.02-17.07
	c0-85.65,0-171.31,0-256.96c0.01-5.69,0.01-11.38,0.02-17.07c0.01-4.8,0.02-9.6,0.02-14.41c0.01-4.81,0.02-9.63,0.02-14.44
	c0-2.63,0.01-5.25,0.01-7.88C314,335.42,314,334.11,314,332.8z"/>
<path class="st0" d="M810.71,327.75c1.83-0.04,3.67-0.09,5.5-0.13c2.34,0,4.69,0,7.03,0c2.34,0,4.68,0,7.01,0
	c2.34,0,4.68-0.01,7.02-0.01c2.81,0,5.62-0.01,8.43-0.01c2.81,0,5.62-0.01,8.43-0.01c2.82,0,5.63-0.01,8.45-0.01
	c21.04,0,42.08,0,63.12,0c3.33,0.89,6.66,1.78,10,2.67c0,0.87,0,1.75,0,2.62c0,0.88,0,1.75,0,2.63c0,1.31,0.01,2.63,0.01,3.94
	c0,2.62,0,5.24,0,7.86c0.01,2.19,0.01,4.38,0.02,6.58c0.01,2.62,0.01,5.25,0.02,7.87c0,2.62,0,5.24,0,7.86c0,3.06,0,6.12,0.01,9.19
	c0.01,5.25,0.01,10.5,0.02,15.75c-0.08,44.57-0.22,89.15-0.22,133.72c0,39.33,0.14,78.66,0.22,117.99
	c-0.01,5.25-0.01,10.5-0.02,15.75c0,3.06,0,6.12,0,9.19c-0.25,2.05-0.49,4.1-0.76,6.3c-3.4,0.17-6.34,0.31-9.28,0.46
	c-21.05,0-42.09,0-63.14,0.01c-3.28,0-6.56-0.01-9.84-0.01c-2.81-0.01-5.63-0.01-8.44-0.02c-2.81,0-5.62,0-8.43,0
	c-2.8,0-5.61,0-8.41,0.01c-1.88,0-3.75,0-5.63,0c-1.94,0.23-3.88,0.46-5.82,0.69c-0.48,0.41-0.95,0.82-1.43,1.23
	c-0.85,0.08-1.7,0.15-2.55,0.23c-0.39-0.31-0.77-0.61-1.16-0.92c-0.16-5.7-0.32-11.41-0.48-17.11c0.01-6.56,0.01-13.12,0.02-19.69
	c0.06-29.64,0.17-59.29,0.17-88.93c-0.02-51.66-0.11-103.32-0.17-154.99c-0.01-6.56-0.01-13.12-0.02-19.68
	c0-5.24,0.01-10.48,0.01-15.72c-0.01-2.62-0.01-5.25-0.02-7.87c0-2.62,0-5.24,0.01-7.87c-0.01-2.19-0.01-4.38-0.02-6.57
	c0-2.18-0.01-4.36-0.01-6.55c0.13-2.15,0.26-4.29,0.39-6.44C810.74,327.72,810.71,327.75,810.71,327.75z"/>
</svg>
